<?xml version="1.0"?>
<svg width="230" height="34.5791630282359" xmlns="http://www.w3.org/2000/svg" xmlns:svg="http://www.w3.org/2000/svg" class="css-1j8o68f" version="1.1">

 <g class="layer">
  <title>Layer 1</title>
  <g fill="#3b3c98" id="SvgjsG2382" transform="matrix(2,0,0,2,0,-19)">
   <g id="g11" transform="translate(-270 -140)">
    <g id="g9">
     <path d="m279,161c-0.74,0 -1.37,0.41 -1.72,1c-0.17,0.29 -0.28,0.63 -0.28,1c0,1.1 0.9,2 2,2c1.1,0 2,-0.9 2,-2c0,-0.37 -0.11,-0.71 -0.28,-1c-0.34,-0.59 -0.98,-1 -1.72,-1z" id="path3"/>
     <path d="m293,161c-0.74,0 -1.37,0.41 -1.72,1c-0.17,0.29 -0.28,0.63 -0.28,1c0,1.1 0.9,2 2,2c1.1,0 2,-0.9 2,-2c0,-0.37 -0.11,-0.71 -0.28,-1c-0.34,-0.59 -0.98,-1 -1.72,-1z" id="path5"/>
     <path d="m299,159l0,-1l-6,-1.72l-7,-4.28l-11,0l0,1l6,0l0,1l-11,0l0,1l12,0l0,1l-10,0l0,1l5,0l0,1l-2,0l0,1l-4,0l0,1l5,0l0,1l-1,0l0,1l-3,0l0,1l4,0c0,-0.35 0.07,-0.69 0.18,-1c0.42,-1.16 1.52,-2 2.82,-2c1.31,0 2.4,0.84 2.82,2c0.11,0.31 0.18,0.65 0.18,1l8,0c0,-0.35 0.07,-0.69 0.18,-1c0.42,-1.16 1.52,-2 2.82,-2c1.31,0 2.4,0.84 2.82,2c0.11,0.31 0.18,0.65 0.18,1l3,0l0,-1l1,0l0,-3l-1,0z" id="path7"/>
    </g>
   </g>
  </g>
  <text fill="#000000" font-family="Helvetica" font-size="41" font-weight="bold" id="svg_1" letter-spacing="0" stroke="#000000" stroke-width="0" style="cursor: move;" text-anchor="middle" transform="matrix(0.937483 0 0 1.04918 3.04511 7.81022)" word-spacing="0" x="153" xml:space="preserve" y="24">Rentacar</text>
 </g>
</svg>